<?xml version="1.0" encoding="UTF-8" standalone="no"?>
<!-- Created with Inkscape (http://www.inkscape.org/) -->

<svg
   xmlns:dc="http://purl.org/dc/elements/1.1/"
   xmlns:cc="http://creativecommons.org/ns#"
   xmlns:rdf="http://www.w3.org/1999/02/22-rdf-syntax-ns#"
   xmlns:svg="http://www.w3.org/2000/svg"
   xmlns="http://www.w3.org/2000/svg"
   xmlns:sodipodi="http://sodipodi.sourceforge.net/DTD/sodipodi-0.dtd"
   xmlns:inkscape="http://www.inkscape.org/namespaces/inkscape"
   width="744.09448819"
   height="1052.3622047"
   id="svg2"
   version="1.1"
   inkscape:version="0.47pre4 r22446"
   sodipodi:docname="valkyrie.svg"
   inkscape:export-filename="/home/macio/Documents/svg/valkyrie.png"
   inkscape:export-xdpi="6.7724867"
   inkscape:export-ydpi="6.7724867">
  <defs
     id="defs4">
    <inkscape:perspective
       sodipodi:type="inkscape:persp3d"
       inkscape:vp_x="0 : 526.18109 : 1"
       inkscape:vp_y="0 : 1000 : 0"
       inkscape:vp_z="744.09448 : 526.18109 : 1"
       inkscape:persp3d-origin="372.04724 : 350.78739 : 1"
       id="perspective10" />
    <marker
       orient="auto"
       markerHeight="3"
       markerWidth="4"
       markerUnits="strokeWidth"
       refY="5"
       refX="10"
       viewBox="0 0 10 10"
       id="ArrowStart">
      <path
         id="path2887"
         d="M 10 0 L 0 5 L 10 10 z" />
    </marker>
    <marker
       orient="auto"
       markerHeight="3"
       markerWidth="4"
       markerUnits="strokeWidth"
       refY="5"
       refX="0"
       viewBox="0 0 10 10"
       id="ArrowEnd">
      <path
         id="path2884"
         d="M 0 0 L 10 5 L 0 10 z" />
    </marker>
    <inkscape:perspective
       id="perspective2923"
       inkscape:persp3d-origin="372.04749 : 350.78752 : 1"
       inkscape:vp_z="744.09497 : 526.18127 : 1"
       inkscape:vp_y="0 : 1000 : 0"
       inkscape:vp_x="0 : 526.18127 : 1"
       sodipodi:type="inkscape:persp3d" />
    <inkscape:perspective
       id="perspective3069"
       inkscape:persp3d-origin="60 : 46.666667 : 1"
       inkscape:vp_z="120 : 70 : 1"
       inkscape:vp_y="0 : 1000 : 0"
       inkscape:vp_x="0 : 70 : 1"
       sodipodi:type="inkscape:persp3d" />
    <clipPath
       id="clipPath3149"
       clipPathUnits="userSpaceOnUse">
      <path
         id="path3151"
         d="M 0,6856.85 0,0 l 3353.9,0 0,6856.85 -3353.9,0 z" />
    </clipPath>
    <inkscape:perspective
       id="perspective3139"
       inkscape:persp3d-origin="0.5 : 0.33333333 : 1"
       inkscape:vp_z="1 : 0.5 : 1"
       inkscape:vp_y="0 : 1000 : 0"
       inkscape:vp_x="0 : 0.5 : 1"
       sodipodi:type="inkscape:persp3d" />
    <inkscape:perspective
       id="perspective3554"
       inkscape:persp3d-origin="0.5 : 0.33333333 : 1"
       inkscape:vp_z="1 : 0.5 : 1"
       inkscape:vp_y="0 : 1000 : 0"
       inkscape:vp_x="0 : 0.5 : 1"
       sodipodi:type="inkscape:persp3d" />
  </defs>
  <sodipodi:namedview
     id="base"
     pagecolor="#ffffff"
     bordercolor="#666666"
     borderopacity="1.0"
     inkscape:pageopacity="0.0"
     inkscape:pageshadow="2"
     inkscape:zoom="0.98994949"
     inkscape:cx="430.51935"
     inkscape:cy="565.0861"
     inkscape:document-units="px"
     inkscape:current-layer="layer1"
     showgrid="false"
     inkscape:window-width="1440"
     inkscape:window-height="827"
     inkscape:window-x="0"
     inkscape:window-y="25"
     inkscape:window-maximized="1" />
  <metadata
     id="metadata7">
    <rdf:RDF>
      <cc:Work
         rdf:about="">
        <dc:format>image/svg+xml</dc:format>
        <dc:type
           rdf:resource="http://purl.org/dc/dcmitype/StillImage" />
        <dc:title></dc:title>
      </cc:Work>
    </rdf:RDF>
  </metadata>
  <g
     inkscape:label="Layer 1"
     inkscape:groupmode="layer"
     id="layer1">
    <rect
       style="opacity:0.15;fill:#1a1a1a"
       id="rect3504"
       width="152.53304"
       height="152.53304"
       x="233.34525"
       y="292.72748"
       rx="48.740822"
       ry="48.740822"
       inkscape:export-filename="/home/macio/Documents/svg/g3508.png"
       inkscape:export-xdpi="28.32"
       inkscape:export-ydpi="28.32" />
    <path
       style="fill:none;stroke:none"
       d="m 68.504649,181.99611 531.562121,0 0,637.875 -531.562121,0 0,-637.875 0,0 z"
       id="path2893" />
    <g
       style="fill-rule:evenodd"
       id="g2917"
       transform="matrix(1.25,0,0,1.25,-48.261976,-56.36639)" />
    <path
       id="path2911"
       d="m 325.28938,317.40037 c 3.49754,-1.81403 7.10041,-3.37442 10.69714,-4.97164 6.52782,-2.8991 12.28142,-5.79819 17.46245,-8.69729 6.61539,-3.70142 7.06195,-0.56322 2.18143,4.17319 -6.2063,6.02309 -20.80359,8.21519 -26.55816,10.36883 7.4581,-1.06503 14.65382,-3.16439 21.72127,-6.42733 2.94466,-1.35939 8.01162,-4.31859 3.22352,1.39236 -5.1038,6.08675 -19.04222,4.83818 -28.10045,8.19063 8.14604,-1.37911 16.14764,-2.59374 24.18608,-4.23426 3.26908,-0.66726 7.60384,-1.5481 2.59892,2.49325 -5.91388,4.7755 -21.0608,2.64286 -27.30136,3.86396 7.6788,0.13184 15.1941,-0.0627 22.55849,-0.55933 2.95565,-0.19905 7.14306,-0.97941 2.26674,2.24283 -6.36432,4.20582 -19.15952,-0.38323 -26.02985,0.2669 5.83568,0.88182 11.51173,1.62791 17.29959,2.15138 3.34049,0.3018 9.02915,1.24436 2.00081,2.93658 -5.54261,1.33452 -14.64219,-2.73172 -19.07098,-3.30915 -0.16156,1.1177 6.79149,2.74626 11.98286,3.75894 5.06696,0.98813 6.73332,2.38662 0.15284,2.15462 -9.35713,-0.33024 -26.54556,-7.87268 -11.27134,-15.79447 z"
       style="fill:#666666;fill-rule:evenodd;stroke:none"
       inkscape:export-filename="/home/macio/Documents/svg/g3508.png"
       inkscape:export-xdpi="28.32"
       inkscape:export-ydpi="28.32" />
    <path
       style="opacity:0.97777776;fill:#97c024;fill-opacity:1;stroke:none"
       d="m 309.67874,327.71363 c -18.53143,0 -33.56249,12.50618 -33.5625,27.94217 0,1.0483 0.0524,2.09294 0.1875,3.1114 l 66.75,0 c 0.13512,-1.01846 0.1875,-2.0631 0.1875,-3.1114 0,-15.43599 -15.03107,-27.94215 -33.5625,-27.94217 z"
       id="path2170"
       inkscape:export-filename="/home/macio/Documents/svg/g3508.png"
       inkscape:export-xdpi="28.32"
       inkscape:export-ydpi="28.32" />
    <path
       style="opacity:0.97777776;fill:#97c024;fill-opacity:1;stroke:none"
       d="m 275.86624,360.90113 0,50.25828 c 0,4.09881 4.42778,7.39799 9.92573,7.39797 l 47.3405,0 c 5.49794,0 9.92572,-3.29916 9.92573,-7.39797 l 0,-50.25828 -67.19196,0 z"
       id="rect3158"
       inkscape:export-filename="/home/macio/Documents/svg/g3508.png"
       inkscape:export-xdpi="28.32"
       inkscape:export-ydpi="28.32" />
    <rect
       style="opacity:0.97777776;fill:#97c024;fill-opacity:1;stroke:none"
       id="rect3162"
       width="15.357142"
       height="37.857143"
       x="289.66064"
       y="404.88635"
       rx="9.7377472"
       ry="7.6109033"
       inkscape:export-filename="/home/macio/Documents/svg/g3508.png"
       inkscape:export-xdpi="28.32"
       inkscape:export-ydpi="28.32" />
    <rect
       ry="7.6109033"
       rx="9.7377472"
       y="404.88635"
       x="314.67081"
       height="37.857143"
       width="15.357142"
       id="rect3164"
       style="opacity:0.97777776;fill:#97c024;fill-opacity:1;stroke:none"
       inkscape:export-filename="/home/macio/Documents/svg/g3508.png"
       inkscape:export-xdpi="28.32"
       inkscape:export-ydpi="28.32" />
    <rect
       ry="7.6920147"
       rx="9.7377472"
       y="359.62939"
       x="345.9332"
       height="47.142857"
       width="15.357142"
       id="rect3169"
       style="opacity:0.97777776;fill:#97c024;fill-opacity:1;stroke:none"
       inkscape:export-filename="/home/macio/Documents/svg/g3508.png"
       inkscape:export-xdpi="28.32"
       inkscape:export-ydpi="28.32" />
    <rect
       style="opacity:0.97777776;fill:#97c024;fill-opacity:1;stroke:none"
       id="rect3171"
       width="15.357142"
       height="47.142857"
       x="257.9332"
       y="359.62939"
       rx="9.7377472"
       ry="7.6920147"
       inkscape:export-filename="/home/macio/Documents/svg/g3508.png"
       inkscape:export-xdpi="28.32"
       inkscape:export-ydpi="28.32" />
    <path
       sodipodi:type="arc"
       style="opacity:0.97777776;fill:#97c024;fill-opacity:1;stroke:none"
       id="path3196"
       sodipodi:cx="341.96429"
       sodipodi:cy="536.11218"
       sodipodi:rx="3.0357144"
       sodipodi:ry="3.0357144"
       d="m 345.00001,536.11218 a 3.0357144,3.0357144 0 1 1 -6.07143,0 3.0357144,3.0357144 0 1 1 6.07143,0 z"
       transform="translate(-47.67394,-192.87566)"
       inkscape:export-filename="/home/macio/Documents/svg/g3508.png"
       inkscape:export-xdpi="28.32"
       inkscape:export-ydpi="28.32" />
    <path
       transform="translate(-16.781083,-192.87566)"
       d="m 345.00001,536.11218 a 3.0357144,3.0357144 0 1 1 -6.07143,0 3.0357144,3.0357144 0 1 1 6.07143,0 z"
       sodipodi:ry="3.0357144"
       sodipodi:rx="3.0357144"
       sodipodi:cy="536.11218"
       sodipodi:cx="341.96429"
       id="path3198"
       style="opacity:0.97777776;fill:#97c024;fill-opacity:1;stroke:none"
       sodipodi:type="arc"
       inkscape:export-filename="/home/macio/Documents/svg/g3508.png"
       inkscape:export-xdpi="28.32"
       inkscape:export-ydpi="28.32" />
    <path
       transform="translate(-47.673941,-192.87566)"
       d="m 345.00001,536.11218 a 3.0357144,3.0357144 0 1 1 -6.07143,0 3.0357144,3.0357144 0 1 1 6.07143,0 z"
       sodipodi:ry="3.0357144"
       sodipodi:rx="3.0357144"
       sodipodi:cy="536.11218"
       sodipodi:cx="341.96429"
       id="path3224"
       style="opacity:0.97777776;fill:#ffffff;fill-opacity:1;stroke:none"
       sodipodi:type="arc"
       inkscape:export-filename="/home/macio/Documents/svg/g3508.png"
       inkscape:export-xdpi="28.32"
       inkscape:export-ydpi="28.32" />
    <path
       sodipodi:type="arc"
       style="opacity:0.97777776;fill:#ffffff;fill-opacity:1;stroke:none"
       id="path3226"
       sodipodi:cx="341.96429"
       sodipodi:cy="536.11218"
       sodipodi:rx="3.0357144"
       sodipodi:ry="3.0357144"
       d="m 345.00001,536.11218 a 3.0357144,3.0357144 0 1 1 -6.07143,0 3.0357144,3.0357144 0 1 1 6.07143,0 z"
       transform="translate(-16.781081,-192.87566)"
       inkscape:export-filename="/home/macio/Documents/svg/g3508.png"
       inkscape:export-xdpi="28.32"
       inkscape:export-ydpi="28.32" />
    <path
       id="path3165"
       style="fill:#231f20;fill-opacity:1;fill-rule:nonzero;stroke:none"
       d="m 589.1463,393.24478 c 0,0 -0.0159,-8.31203 -4.93953,-8.62609 0,0 3.36925,0.52383 2.96793,5.04412 0,0 -0.23146,1.98207 -1.17731,-1.79256 0,0 0.77063,5.45199 3.14891,5.37453" />
    <path
       id="path3167"
       style="fill:#231f20;fill-opacity:1;fill-rule:nonzero;stroke:none"
       d="m 591.43497,393.24478 c 0,0 0.0159,-8.31203 4.93954,-8.62609 0,0 -3.36884,0.52383 -2.96774,5.04412 0,0 0.23145,1.98207 1.17752,-1.79256 0,0 -0.77083,5.45199 -3.14932,5.37453" />
    <path
       id="path3169"
       style="fill:#231f20;fill-opacity:1;fill-rule:nonzero;stroke:none"
       d="m 623.55889,383.97421 c 0,0 -5.81048,9.81932 -11.65835,-2.57909 0,0 -4.43012,-10.0353 -6.79689,-0.51759 0,0 1.10164,-4.3545 3.41018,-1.94084 2.30834,2.41407 0.43449,8.62456 -4.98384,4.20312 -5.41832,-4.42261 -9.23973,6.60161 -7.10721,10.27816 0,0 -1.33924,-2.55378 0.67111,-6.01435 2.01014,-3.46094 3.55619,2.90444 1.32553,2.74253 0,0 3.97636,4.99198 4.96732,-3.02856 0,0 -0.85367,4.7425 -2.84057,0.66549 -1.98709,-4.07662 1.02156,-6.22606 3.67401,-3.05309 3.02553,3.61894 4.34809,9.46166 8.9008,4.62576 0,0 -3.67023,3.36208 -3.89215,-2.33042 -0.18137,-4.63508 4.24916,-0.73397 4.24916,-0.73397 0,0 5.62216,5.16827 10.0809,-2.31715" />
    <path
       id="path3171"
       style="fill:#231f20;fill-opacity:1;fill-rule:nonzero;stroke:none"
       d="m 564.06714,390.27425 c 0,0 -3.64141,-4.24008 -6.41705,4.12489 0,0 -2.07727,6.69968 -3.78047,1.84393 0,0 0.79011,2.2183 1.98471,0.32185 1.19441,-1.89606 -0.10131,-4.98925 -2.95482,-1.24537 -2.85429,3.74426 -5.43044,-1.63376 -4.38484,-4.20584 0,0 -0.64707,1.75247 0.61567,3.25704 1.26196,1.50221 1.87208,-2.45806 0.63159,-1.85794 0,0 2.02444,-3.73766 2.8982,0.58415 0,0 -0.66656,-2.49501 -1.6146,0.27087 -0.94825,2.76394 0.81971,3.29749 2.17643,0.89237 1.54783,-2.74251 2.05424,-6.35798 4.79351,-4.65416 0,0 -2.18696,-1.06946 -2.08426,2.20898 0.0832,2.66938 2.4053,-0.55225 2.4053,-0.55225 0,0 2.93873,-4.21479 5.73063,-0.98852" />
    <path
       id="path3173"
       style="fill:#231f20;fill-opacity:1;fill-rule:nonzero;stroke:none"
       d="m 556.92702,383.97421 c 0,0 5.81056,9.81932 11.65835,-2.57909 0,0 4.43012,-10.0353 6.79692,-0.51759 0,0 -1.1019,-4.3545 -3.41029,-1.94084 -2.30869,2.41407 -0.43428,8.62456 4.98372,4.20312 5.41833,-4.42261 9.23974,6.60161 7.10742,10.27816 0,0 1.33902,-2.55378 -0.67111,-6.01435 -2.01014,-3.46094 -3.55619,2.90444 -1.32534,2.74253 0,0 -3.97657,4.99198 -4.96733,-3.02856 0,0 0.85328,4.7425 2.84059,0.66549 1.98689,-4.07662 -1.02197,-6.22606 -3.67413,-3.05309 -3.02576,3.61894 -4.34814,9.46166 -8.90078,4.62576 0,0 3.66978,3.36208 3.89234,-2.33042 0.18125,-4.63508 -4.24973,-0.73397 -4.24973,-0.73397 0,0 -5.6218,5.16827 -10.08063,-2.31715" />
    <path
       id="path3175"
       style="fill:#231f20;fill-opacity:1;fill-rule:nonzero;stroke:none"
       d="m 573.99236,393.30471 c 0,0 3.64142,-4.24008 6.41684,4.12489 0,0 2.07729,6.69968 3.78068,1.84393 0,0 -0.79011,2.2183 -1.9847,0.32185 -1.19461,-1.89606 0.10131,-4.98925 2.95502,-1.24537 2.85408,3.74426 5.43022,-1.63376 4.38483,-4.20584 0,0 0.64687,1.75247 -0.61567,3.25704 -1.26216,1.50221 -1.87248,-2.45806 -0.63177,-1.85794 0,0 -2.02426,-3.73766 -2.8982,0.58415 0,0 0.66613,-2.49501 1.61458,0.27087 0.94845,2.76394 -0.81971,3.29749 -2.17623,0.89237 -1.54803,-2.74251 -2.05424,-6.35798 -4.7937,-4.65416 0,0 2.18697,-1.06946 2.08425,2.20898 -0.0834,2.66938 -2.4055,-0.55225 -2.4055,-0.55225 0,0 -2.93865,-4.21479 -5.73043,-0.98852" />
    <path
       id="path2913"
       d="m 293.53002,317.40037 c -3.49753,-1.81403 -7.10008,-3.37442 -10.69681,-4.97164 -6.52814,-2.8991 -12.28142,-5.79819 -17.46277,-8.69729 -6.61506,-3.70142 -7.06162,-0.56322 -2.18143,4.17319 6.20631,6.02309 20.80391,8.21519 26.55816,10.36883 -7.45811,-1.06503 -14.6535,-3.16439 -21.72127,-6.42733 -2.94466,-1.35939 -8.01162,-4.31859 -3.22319,1.39236 5.10347,6.08675 19.04189,4.83818 28.10012,8.19063 -8.14604,-1.37911 -16.14764,-2.59374 -24.18576,-4.23426 -3.26908,-0.66726 -7.60383,-1.5481 -2.59923,2.49325 5.91387,4.7755 21.06111,2.64286 27.30135,3.86396 -7.67848,0.13184 -15.19409,-0.0627 -22.55817,-0.55933 -2.95597,-0.19905 -7.14338,-0.97941 -2.26674,2.24283 6.364,4.20582 19.15952,-0.38323 26.02985,0.2669 -5.83568,0.88182 -11.51206,1.62791 -17.29991,2.15138 -3.3405,0.3018 -9.02883,1.24436 -2.00048,2.93658 5.54227,1.33452 14.64219,-2.73172 19.07097,-3.30915 0.16124,1.1177 -6.79181,2.74626 -11.98317,3.75894 -5.06665,0.98813 -6.73334,2.38662 -0.15252,2.15462 9.35712,-0.33024 26.54523,-7.87268 11.271,-15.79447 z"
       style="fill:#666666;fill-rule:evenodd;stroke:none"
       inkscape:export-filename="/home/macio/Documents/svg/g3508.png"
       inkscape:export-xdpi="28.32"
       inkscape:export-ydpi="28.32" />
    <path
       id="path2911-4"
       d="m 503.43021,560.15575 c 3.49754,-1.81403 7.10041,-3.37442 10.69714,-4.97164 6.52782,-2.8991 12.28142,-5.79819 17.46245,-8.69729 6.61539,-3.70142 7.06195,-0.56322 2.18143,4.17319 -6.2063,6.02309 -20.80359,8.21519 -26.55816,10.36883 7.4581,-1.06503 14.65382,-3.16439 21.72127,-6.42733 2.94466,-1.35939 8.01162,-4.31859 3.22352,1.39236 -5.1038,6.08675 -19.04222,4.83818 -28.10045,8.19063 8.14604,-1.37911 16.14764,-2.59374 24.18608,-4.23426 3.26908,-0.66726 7.60384,-1.5481 2.59892,2.49325 -5.91388,4.7755 -21.0608,2.64286 -27.30136,3.86396 7.6788,0.13184 15.1941,-0.0627 22.55849,-0.55933 2.95565,-0.19905 7.14306,-0.97941 2.26674,2.24283 -6.36432,4.20582 -19.15952,-0.38323 -26.02985,0.2669 5.83568,0.88182 11.51173,1.62791 17.29959,2.15138 3.34049,0.3018 9.02915,1.24436 2.00081,2.93658 -5.54261,1.33452 -14.64219,-2.73172 -19.07098,-3.30915 -0.16156,1.1177 6.79149,2.74626 11.98286,3.75894 5.06696,0.98813 6.73332,2.38662 0.15284,2.15462 -9.35713,-0.33024 -26.54556,-7.87268 -11.27134,-15.79447 z"
       style="fill:#1a1a1a;fill-rule:evenodd;stroke:none"
       inkscape:export-filename="/home/macio/Documents/svg/g3508.png"
       inkscape:export-xdpi="36.27"
       inkscape:export-ydpi="36.27" />
  </g>
</svg>
